<svg version="1.2" xmlns="http://www.w3.org/2000/svg" viewBox="0 0 367 158" width="369" height="159">
	<title>logo-svg</title>
	<defs>
		<linearGradient id="g1" x2="1" gradientUnits="userSpaceOnUse" gradientTransform="matrix(0,44.617,-45.314,0,183.716,19.742)">
			<stop offset="0" stop-color="#020000"/>
			<stop offset="1" stop-color="#000000"/>
		</linearGradient>
	</defs>
	<style>
		.s0 { fill: #ffffff } 
		.s1 { fill: #3e37c5 } 
		.s2 { fill: #63a0fb } 
		.s3 { fill: url(#g1) } 
		.s4 { fill: #0064ff } 
	</style>
	<g id="Layer">
		<path id="Layer" fill-rule="evenodd" class="s0" d="m292.2 157.2c-2.7-0.6-5.9-2.4-7.9-4.3-1-1-1.6-2.2-2-4.6q-0.7-4.7 2.9-8.3c2.1-2 3.4-2.6 8.6-3.9 2.5-0.6 6.1-1.4 8.1-1.8 2.1-0.4 3.8-0.7 3.9-0.9 0.3-0.4 0.5-3 0.3-4.5-0.5-3-2.2-4.6-5.6-5.1-2.8-0.4-2.4-0.6-6.1 3l-3.2 3.2-1.6 0.4c-2.5 0.5-3.8 0.2-4.9-1.2-0.3-0.5-0.4-0.9-0.4-2.1 0-2.7 0-2.9 2.2-4.2 2-1.4 4.2-2.7 5.8-3.4 0.9-0.4 1.2-0.5 5.3-0.4 2.4 0 5.4 0.1 6.8 0.2 2.3 0.2 2.7 0.3 4.1 1 2.7 1.4 4.7 3.2 6.5 5.8 0.8 1.1 0.8 1.3 1.2 10.6 0.1 2.7 0.3 6.7 0.4 8.8l0.2 3.6 1.3 1.4c1.6 1.7 2.1 2.9 1.7 3.8-0.6 1.3-2.7 2-6 2-2.8 0-4.1-0.5-6-2.5l-1.5-1.4-1.1 0.8c-1.8 1.5-4.1 2.8-5.9 3.4-2.2 0.8-5.1 1-7.1 0.6zm9.3-6.5c0.7-0.3 1.6-0.7 2.1-1 0.7-0.5 0.8-0.6 1.4-2.3 0.6-2.4 0.9-4 0.9-6.5v-2.1h-6.5l-1.6 0.8c-4.3 2.2-5.3 5.3-3.1 9.7 0.9 1.7 1 1.8 3.8 1.9 1.3 0 2-0.1 3-0.5z"/>
		<path id="Layer" class="s0" d="m66.7 157.1q-3.6-0.7-7.3-3.5c-1-0.7-1.7-1.3-1.8-1.7-0.2-0.9-1.1-8.4-1.4-12.1-0.2-2.1-0.4-5.6-0.5-8l-0.1-4.2-1-1.8c-0.6-0.9-1.4-2.2-1.9-2.9-0.7-1.1-0.7-1.2-0.5-1.9 0.1-0.5 0.4-0.9 0.6-1.1 0.8-0.8 5.2-1 7.8-0.4 1.8 0.4 4.4 1.5 4.4 1.9 0 0.1 0.1 1.4 0.4 3 0.7 5.3 1.2 11.6 1.5 18.3l0.1 3.7 0.9 1.2c0.5 0.6 1.2 1.5 1.7 1.8 0.7 0.6 1.1 0.6 2.2 0.6 1.6 0.1 3.2-0.6 4.4-1.8 0.8-0.7 2.9-4.8 3.6-6.8q1.2-3.9 1.2-8.1c0-5.2-0.6-7.2-2.6-9.2-0.6-0.5-1.1-1.3-1.3-1.7-0.3-0.9 0-2 0.5-2.3 0.7-0.4 3-0.9 5.3-1.1 1.8-0.1 2.3-0.1 3.5 0.3 1.6 0.5 3.2 1.7 4.1 3.1 0.4 0.8 0.4 0.9 1 13.7l0.5 13 0.9 0.9c1 1.1 1.5 1.9 1.6 3.2 0.2 1-0.2 1.9-0.8 2.4-0.5 0.4-2.5 0.6-6.3 0.7h-3.3l-0.9-0.8c-1-1-2.2-3.2-2.4-4.9l-0.3-1.3-0.5 0.7c-1.6 2.1-4.4 4.7-6 5.6-2.1 1.2-5.1 1.8-7.3 1.5z"/>
		<path id="Layer" class="s0" d="m166.4 157c-4.7-0.2-7.7-0.8-11.1-2.4-4.5-2-8.1-5.6-10.4-10.3-1.4-2.8-2.7-7.6-3.3-12-0.2-1.6-0.1-2.4 0.1-4.5 1.1-9.2 5.4-15.6 12.9-19.7 4.5-2.4 9.1-3.4 13.8-3.1 6 0.4 10.8 2.4 15.7 6.4 1.3 1.1 1.7 1.6 2.4 3.1 0.5 0.9 1.1 2.3 1.3 3 0.5 1.4 0.6 3.6 0.3 4.6-0.9 2.1-3.2 3.3-7.5 3.6l-1.7 0.2-1.5-1.6c-1.8-1.9-3.4-4.2-4.6-6.8-0.9-2-1.4-2.6-3.5-4-3-2-6.7-2.2-10.3-0.5-1.3 0.5-2.6 2.1-3.8 4.5-1 2-1.4 4.5-1.4 8.4 0 6.8 2 12.5 6.2 18.1 1 1.3 1.4 1.7 2.5 2.2 3 1.5 6.5 2.1 10 1.8l2.1-0.3 2.8-1.8c1.6-1 4.1-2.7 5.7-3.9 1.6-1.1 2.9-2 3-2 0.2 0 0 2.6-0.4 4.6-1.1 5.7-5.3 10-11.6 11.9-2 0.6-3.4 0.7-7.7 0.6z"/>
		<path id="Layer" fill-rule="evenodd" class="s0" d="m209.3 157c-2-0.4-5.3-1.5-7.3-2.5-1.5-0.8-2.7-2.1-4.7-5.1-4.8-7.3-4.9-15.5 0-23.7 0.7-1.3 1.1-1.7 2.7-2.8 1-0.8 2.5-1.9 3.3-2.6 0.9-0.7 1.7-1.2 2.1-1.3 1-0.2 8.8 0 10.6 0.3 9.3 1.4 14.3 5.5 15.7 12.9 0.3 2.1 0.1 6.7-0.5 9.8-0.5 2.5-2.4 8.3-2.9 9.1-0.4 0.6-3 2.4-4.9 3.5-4.4 2.3-9.3 3.1-14.1 2.3zm7.5-5.1c1.8-0.8 3.8-3.8 4.4-6.4 0.3-1.9 0.3-8-0.2-10.2-0.8-4.2-2.5-8.4-4-9.7-1.6-1.5-3.7-2.3-5.9-2.3-0.9 0-1.2 0.1-1.9 0.6-1.2 0.8-2.8 2.7-3.4 4l-0.6 1.1v5.1c0 4.4 0.1 5.4 0.4 7 0.8 3.6 2.7 8.7 3.5 9.6 0.5 0.6 2 1.2 4.2 1.7 0.7 0.1 2.6-0.2 3.5-0.5z"/>
		<path id="Layer" fill-rule="evenodd" class="s0" d="m346.2 157.1c-1.1-0.2-4.5-1.9-7-3.5-1-0.7-1.9-1.2-2-1.2 0 0-0.7 0.5-1.5 1.2-2.3 1.9-4.3 2.6-7.1 2.6-1.7 0.1-4.2-0.5-4.3-0.9-0.2-0.4 0.4-2 1.1-3.2 0.3-0.4 1.1-1.4 1.8-2 1.2-1.1 1.2-1.2 1.2-2.2 0-0.6 0.1-5.1 0.2-10 0.2-7 0.2-11.2 0-19.6-0.2-10.5-0.2-10.6-0.7-10.9-2.3-1.7-2.8-2.5-2.8-4.5 0-0.7 0.1-1.6 0.3-1.9l0.3-0.6 2.5-0.1c1.4 0 3.8 0.1 5.2 0.2 2.5 0.3 2.8 0.3 3.3 0.9 0.4 0.3 0.7 0.7 0.8 0.9 0.3 0.4 1.2 6.1 1.5 9.3 0.2 1.5 0.4 4.4 0.5 6.5 0.2 2 0.3 3.7 0.3 3.8 0.1 0 0.7-0.2 1.4-0.5q7.3-3.8 14.9-1.3c3.7 1.1 5.8 2.7 7.7 5.5 2 3.1 2.3 4.6 2.4 11.5 0 5.5-0.3 7.5-1.2 9.7-2.2 5.5-5.9 8.8-10.9 10-1.7 0.5-6.2 0.6-7.9 0.3zm4.2-5.1c1.5-0.3 1.6-0.4 3.1-3.4 1.7-3.6 2.7-8 2.4-11.6-0.2-2.2-0.6-4.9-1.1-6.4-1.3-4.5-4.8-6.9-9.6-6.6-1.2 0.1-1.8 0.3-2.2 0.6-0.7 0.5-2.8 3-3.2 3.8-0.1 0.3-0.3 2.1-0.5 4-0.3 5.6 0.3 12 1.5 14.8 1.6 3.9 5 5.6 9.6 4.8z"/>
		<path id="Layer" class="s0" d="m24.1 156.8c-9.7-0.9-16.6-4.9-20.1-11.6-2.7-5.3-3.5-11.7-2.7-20.4 0.4-3.5 3-8.3 6.7-12.2 2.1-2.3 3.9-3.6 6.8-5.2 3.1-1.7 4-2 7.2-2.2 5.3-0.4 11.1 0.6 15.3 2.7 1.8 0.9 4.8 2.9 6.2 4 2.9 2.4 4.9 7.8 3.7 10.2-1 1.9-2.9 2.9-6.6 3.4-2.4 0.4-2.3 0.4-4.8-2.2-2-2.2-3.8-4.8-4.9-7.2l-0.8-1.8-1.9-0.7c-2.7-1-3.8-1.2-6.2-1.2-1.7 0-2.4 0-3.3 0.4-1.3 0.5-2.9 1.9-3.8 3.2-1.3 2-2.2 5.3-2.4 9.3-0.5 8.3 1.9 14.7 7.3 19.4 2.4 2.1 3.9 2.9 5.6 3.3 2.2 0.3 5.5 0.3 7.5-0.2 3.6-0.8 7.4-3.2 9.6-6.1 1-1.3 2.1-1.8 3.4-1.9 0.8 0 0.9 0.1 0.8 0.6-0.1 0.3-0.2 0.9-0.3 1.4-0.4 2.7-1.5 5.5-3.1 7.8-2.1 3.2-5.5 5.5-9.9 7-1.3 0.4-1.8 0.5-4.5 0.5-1.6-0.1-3.7-0.2-4.8-0.3z"/>
		<path id="Layer" fill-rule="evenodd" class="s0" d="m118.9 156.9c-4.8-0.5-7-1-10-2.5-6.6-3.1-9.6-9.9-8.9-19.7 0.2-2.7 0.3-3.2 0.8-4.2 1-2 3.1-4.6 5-6.4 2-1.9 3.2-2.8 5.7-4.2l1.5-0.8h4.5c2.4 0 5.6 0.2 6.9 0.2 2.4 0.2 2.6 0.3 4 1.1 2.8 1.6 4.9 4.1 6.1 7.4 0.8 2 0.8 2.4-0.2 4.5-0.5 1-1 1.8-1.9 2.6-1.1 1.1-1.9 1.5-6.1 3.7-2.7 1.3-6.4 3-8.4 3.8-4 1.8-4.6 2.2-4.4 2.9 0.3 1.2 4.1 3.6 6.7 4.3 2 0.6 4.8 0.4 6.8-0.4 1.6-0.7 4.2-2.6 5.3-3.8 0.3-0.4 0.9-0.9 1.3-1 1-0.4 2.3-0.6 2.5-0.3 0.2 0.3-0.3 2-1 3.8-2.1 5.3-6.4 8.4-12.4 8.9-2 0.2-2.4 0.3-3.8 0.1zm-3.2-19.9c3.3-1.5 6.6-3.3 7.4-3.9 0.4-0.4 1-1.2 1.2-1.7l0.5-1-0.4-1c-0.6-1.4-1.7-3-2.6-3.8-1.7-1.4-4.6-2.1-7.2-1.6-1.2 0.2-1.3 0.3-2.3 1.3-1.4 1.5-2.5 3.7-2.8 5.4-0.4 2.3 0.3 4.9 1.8 7.2l0.5 0.9 1.1-0.5c0.6-0.3 1.8-0.8 2.8-1.3z"/>
		<path id="Layer" class="s0" d="m240.8 156.2c-1.2-0.1-2.2-0.2-2.4-0.2-0.4-0.2-0.9-1.5-0.9-2.4 0-1.1 0.5-1.8 1.5-2.7l0.8-0.7 0.2-5.3c0.3-7 0.3-26.4 0-33.1l-0.2-5.1-0.8-0.8c-1.1-0.9-1.5-1.9-1.5-3 0-1 0.4-2.2 0.7-2.5 0.6-0.4 9 0 10.3 0.5 0.3 0.1 0.9 0.5 1.1 1 0.7 0.8 0.6-0.9 0.9 14.5 0.1 4.9 0.3 14.2 0.4 20.8l2 11.1 2.9 1c0.5 0.7 13.9 0 15.7 0.5 13.2 3.6 5.4 5.7 3.2 6.2-1.9 0.4-20.6-0.1-22 0.1-1.9 0.2-9.8 0.3-11.9 0.1z"/>
		<path id="Layer" class="s0" d=""/>
	</g>
	<g id="Layer">
		<path id="Layer" class="s1" d="m196.8 78.9c-3.3-3.1-7.8-7.3-9.9-9.4-3.6-3.4-3.9-3.7-4.2-3.3-0.3 0.2-0.3 0.2-0.3-1.1v-1.2l1-0.7c2.7-2 6.2-5 6.7-6 0.1-0.2 0.4-0.3 0.6-0.3 0.3 0 2-1.6 2-2 0-0.2 1.7-1.9 2-1.9 0.1 0 2-1.9 4.3-4.2 2.3-2.4 4.3-4.3 4.4-4.3 0.5 0 1.6-1.2 1.7-1.8 0.2-0.4-1.1-1.6-8.1-8.7-4.6-4.5-8.3-8.4-8.3-8.5 0-0.1-0.3-0.4-0.5-0.5-0.3-0.1-0.5-0.3-0.5-0.5 0-0.1-0.2-0.3-0.3-0.3-0.3 0-1.6-1.1-2.9-2.3-1.1-1-1.3-1.5-0.9-2.7 0.1-0.4 0.2-0.5 0.3-0.3 0.1 0.2 0.2 0.2 0.4 0 0.1-0.1 1.7-1.6 3.4-3.3 1.8-1.7 6.1-5.7 9.5-9.1 3.3-3.4 6.1-6 6.2-6 0 0 9.5 9.5 21 21.1l21.1 21-11 10.8c-16.6 16.5-31.2 30.9-31.5 31.1-0.1 0-2.9-2.5-6.2-5.6z"/>
	</g>
	<g id="Layer">
		<path id="Layer" class="s2" d="m156.8 77.4c-3.9-3.9-13.5-13.3-21.2-21l-14-13.9 4.1-4.1c2.2-2.2 6.8-6.7 10.3-10 3.4-3.2 6.5-6.3 7-6.8l0.9-0.9v0.7c0 0.4 0.1 0.8 0.3 1 0.2 0.2 0.6 0.7 1 1.1 2.4 3.3 7.7 9.2 15.7 17.6 0.6 0.6 2.8 3 5 5.3 4.5 4.8 8.6 9 14 14.1 3.1 2.9 3.7 3.6 3.4 3.7-0.2 0.1-0.3 0.3-0.2 0.5 0.1 0.2 0 0.7-0.1 0.9-0.5 1.4-17.9 18.9-18.7 18.9-0.1-0.1-3.5-3.2-7.5-7.1z"/>
		<path id="Layer" class="s2" d="m188.8 25.6c-0.6-0.6-0.7-0.8-0.7-1.4 0.1-0.6 0.1-0.6 0.4-0.3 0.2 0.3 0.2 0.4 0 0.2-0.2-0.1-0.2-0.1-0.1 0.1 0 0.2 0.2 0.2 0.3 0.2 0.2-0.2 1.7 1.4 1.7 1.8 0.1 0.5-0.8 0.3-1.6-0.6z"/>
	</g>
	<g id="Layer">
		<path id="Layer" class="s3" d="m181.5 63.2c-0.6-0.7-2.8-2.8-4.8-4.6-3.7-3.4-14.6-14.7-15.3-15.7l-0.3-0.7 0.9-1c0.6-0.5 2-2 3.2-3.3 3.2-3.4 12.3-12.4 15.4-15.4 2.6-2.4 3.9-3.3 3.5-2.4-0.1 0.4 3.4 3.5 3.8 3.4 0 0 0.3 0.1 0.5 0.4 0.2 0.2 0.2 0.3 0.1 0.2-0.2-0.1 0 0.2 0.5 0.7 0.4 0.4 0.9 0.7 0.9 0.7 0.1 0 0.2 0.1 0.2 0.2q-0.1 0.2 0.2 0.2c0.1 0 0.2 0 0.1 0.2 0 0 3.5 3.6 7.8 7.9 4.3 4.3 8 8 8.1 8.2 0.1 0.3 0.1 0.5-0.2 0.6-0.2 0.2-0.3 0.4-0.3 0.5 0.2 0.3-1.3 1.8-1.8 1.8-0.1 0-2.1 1.9-4.4 4.3-2.3 2.3-4.2 4.2-4.4 4.2-0.2 0-1.9 1.7-1.9 2 0 0.3-1.6 1.8-2.1 1.9-0.2 0.1-0.3 0.2-0.4 0.3 0 0.3-1.8 2-3.5 3.3-0.9 0.8-2 1.7-2.5 2.1-1.9 1.5-1.8 1.5-3.2 0z"/>
	</g>
	<g id="Layer">
		<path id="Layer" class="s4" d="m160.4 41.8c-6.4-6.6-13.3-14.4-15.8-17.7-0.4-0.4-0.9-1.1-1.3-1.4l-0.7-0.6 4.1-4.2c2.2-2.4 5-5.3 6.1-6.4 3-3.1 11.3-11 11.5-11 0.1 0 0.5 0.4 1.1 0.9 2.8 2.6 4.5 4.2 8.1 7.6 2.2 2.1 5.5 5.2 7.3 7 2.7 2.6 3.4 3.3 3.4 3.7 0 0.5-0.6 1.2-3.1 3.5-3.8 3.6-13.3 13.2-16.8 16.9-1.5 1.5-2.7 2.8-2.8 2.8 0-0.1-0.6-0.5-1.1-1.1z"/>
		<path id="Layer" class="s4" d="m188.2 23.9c-0.3-0.1-0.4-0.3-0.3-0.4 0 0 0.3 0.1 0.5 0.3q0.6 0.8-0.2 0.1z"/>
	</g>
</svg>